<svg width="16" height="16" viewBox="0 0 16 16" fill="none" xmlns="http://www.w3.org/2000/svg">
<path d="M2.66663 4C2.66663 5.10467 5.05463 6 7.99996 6C10.9453 6 13.3333 5.10467 13.3333 4M2.66663 4C2.66663 2.89533 5.05463 2 7.99996 2C10.9453 2 13.3333 2.89533 13.3333 4M2.66663 4V8M13.3333 4V8M2.66663 8C2.66663 9.10467 5.05463 10 7.99996 10C8.74529 10 9.45529 9.94267 10.1 9.83933M2.66663 8V12C2.66663 13.1047 5.05463 14 7.99996 14C8.10463 14 8.20796 13.9987 8.31063 13.9967M10.6666 12.6667H14.6666M12.6666 14.6667L14.6666 12.6667L12.6666 10.6667" stroke="#7D7D7D" stroke-width="1.25" stroke-linecap="round" stroke-linejoin="round"/>
</svg>
