<?xml version="1.0" encoding="iso-8859-1"?>
<!-- Uploaded to: SVG Repo, www.svgrepo.com, Generator: SVG Repo Mixer Tools -->
<svg version="1.1" id="Layer_1" xmlns="http://www.w3.org/2000/svg" xmlns:xlink="http://www.w3.org/1999/xlink" 
	 viewBox="0 0 512 512" xml:space="preserve">
<circle style="fill:#FF7D46;" cx="80.843" cy="56" r="45.333"/>
<rect x="177.824" y="24" style="fill:#EFEFEF;" width="298.667" height="64"/>
<circle style="fill:#FF7D46;" cx="80.843" cy="189.333" r="45.333"/>
<rect x="177.824" y="157.333" style="fill:#EFEFEF;" width="298.667" height="64"/>
<circle style="fill:#FF7D46;" cx="80.843" cy="322.667" r="45.333"/>
<rect x="177.824" y="290.667" style="fill:#EFEFEF;" width="298.667" height="64"/>
<circle style="fill:#45CCFF;" cx="80.843" cy="456" r="45.333"/>
<rect x="177.824" y="424" style="fill:#D1D5D8;" width="298.667" height="64"/>
<g>
	<path style="fill:#231F20;" d="M80.844,112c-30.878,0-56-25.122-56-56s25.122-56,56-56s56,25.122,56,56S111.722,112,80.844,112z
		 M80.844,21.333c-19.116,0-34.667,15.551-34.667,34.667s15.551,34.667,34.667,34.667S115.51,75.116,115.51,56
		S99.959,21.333,80.844,21.333z"/>
	<path style="fill:#231F20;" d="M476.49,98.667H177.823c-5.89,0-10.667-4.777-10.667-10.667V24c0-5.89,4.777-10.667,10.667-10.667
		H476.49c5.89,0,10.667,4.777,10.667,10.667v64C487.156,93.89,482.38,98.667,476.49,98.667z M188.49,77.333h277.333V34.667H188.49
		L188.49,77.333L188.49,77.333z"/>
	<path style="fill:#231F20;" d="M80.844,245.333c-30.878,0-56-25.122-56-56s25.122-56,56-56s56,25.122,56,56
		S111.722,245.333,80.844,245.333z M80.844,154.667c-19.116,0-34.667,15.551-34.667,34.667S61.728,224,80.844,224
		s34.667-15.551,34.667-34.667S99.959,154.667,80.844,154.667z"/>
	<path style="fill:#231F20;" d="M476.49,232H177.823c-5.89,0-10.667-4.777-10.667-10.667v-64c0-5.89,4.777-10.667,10.667-10.667
		H476.49c5.89,0,10.667,4.777,10.667,10.667v64C487.156,227.223,482.38,232,476.49,232z M188.49,210.667h277.333V168H188.49
		L188.49,210.667L188.49,210.667z"/>
	<path style="fill:#231F20;" d="M80.844,378.667c-30.878,0-56-25.122-56-56s25.122-56,56-56s56,25.122,56,56
		S111.722,378.667,80.844,378.667z M80.844,288c-19.116,0-34.667,15.551-34.667,34.667s15.551,34.667,34.667,34.667
		s34.667-15.551,34.667-34.667S99.959,288,80.844,288z"/>
	<path style="fill:#231F20;" d="M476.49,365.333H177.823c-5.89,0-10.667-4.777-10.667-10.667v-64c0-5.89,4.777-10.667,10.667-10.667
		H476.49c5.89,0,10.667,4.777,10.667,10.667v64C487.156,360.557,482.38,365.333,476.49,365.333z M188.49,344h277.333v-42.667H188.49
		L188.49,344L188.49,344z"/>
	<path style="fill:#231F20;" d="M80.844,512c-30.878,0-56-25.122-56-56s25.122-56,56-56s56,25.122,56,56S111.722,512,80.844,512z
		 M80.844,421.333c-19.116,0-34.667,15.551-34.667,34.667s15.551,34.667,34.667,34.667S115.51,475.116,115.51,456
		S99.959,421.333,80.844,421.333z"/>
	<path style="fill:#231F20;" d="M80.844,466.667c-5.884,0-10.667-4.783-10.667-10.667s4.783-10.667,10.667-10.667
		c5.884,0,10.667,4.783,10.667,10.667S86.727,466.667,80.844,466.667z"/>
	<path style="fill:#231F20;" d="M476.49,498.667H177.823c-5.89,0-10.667-4.777-10.667-10.667v-64c0-5.89,4.777-10.667,10.667-10.667
		H476.49c5.89,0,10.667,4.777,10.667,10.667v64C487.156,493.89,482.38,498.667,476.49,498.667z M188.49,477.333h277.333v-42.667
		H188.49L188.49,477.333L188.49,477.333z"/>
</g>
</svg>