<svg width="14" height="14" viewBox="0 0 14 14" fill="none" xmlns="http://www.w3.org/2000/svg">
<path d="M1.02498 4.62509H12.225M1.02498 8.62509H12.225M6.29169 0.625092C5.16858 2.42483 4.57316 4.50367 4.57316 6.62509C4.57316 8.74652 5.16858 10.8254 6.29169 12.6251M6.95833 0.625092C8.08144 2.42483 8.67686 4.50367 8.67686 6.62509C8.67686 8.74652 8.08144 10.8254 6.95833 12.6251M0.625 6.62509C0.625 7.41302 0.780195 8.19324 1.08172 8.92119C1.38325 9.64915 1.82521 10.3106 2.38236 10.8677C2.93951 11.4249 3.60095 11.8668 4.3289 12.1684C5.05685 12.4699 5.83707 12.6251 6.625 12.6251C7.41293 12.6251 8.19315 12.4699 8.9211 12.1684C9.64905 11.8668 10.3105 11.4249 10.8676 10.8677C11.4248 10.3106 11.8667 9.64915 12.1683 8.92119C12.4698 8.19324 12.625 7.41302 12.625 6.62509C12.625 5.03379 11.9929 3.50767 10.8676 2.38245C9.74242 1.25723 8.2163 0.625092 6.625 0.625092C5.0337 0.625092 3.50758 1.25723 2.38236 2.38245C1.25714 3.50767 0.625 5.03379 0.625 6.62509Z" stroke="#7D7D7D" stroke-width="1.25" stroke-linecap="round" stroke-linejoin="round"/>
</svg>
