<svg width="11" height="14" viewBox="0 0 11 14" fill="none" xmlns="http://www.w3.org/2000/svg">
<path d="M3.29167 1.95833H1.95833C1.60471 1.95833 1.26557 2.09881 1.01552 2.34886C0.765476 2.59891 0.625 2.93804 0.625 3.29167V11.2917C0.625 11.6453 0.765476 11.9844 1.01552 12.2345C1.26557 12.4845 1.60471 12.625 1.95833 12.625H8.625C8.97862 12.625 9.31776 12.4845 9.56781 12.2345C9.81786 11.9844 9.95833 11.6453 9.95833 11.2917V3.29167C9.95833 2.93804 9.81786 2.59891 9.56781 2.34886C9.31776 2.09881 8.97862 1.95833 8.625 1.95833H7.29167M3.29167 1.95833C3.29167 1.60471 3.43214 1.26557 3.68219 1.01552C3.93224 0.765476 4.27138 0.625 4.625 0.625H5.95833C6.31195 0.625 6.65109 0.765476 6.90114 1.01552C7.15119 1.26557 7.29167 1.60471 7.29167 1.95833M3.29167 1.95833C3.29167 2.31196 3.43214 2.65109 3.68219 2.90114C3.93224 3.15119 4.27138 3.29167 4.625 3.29167H5.95833C6.31195 3.29167 6.65109 3.15119 6.90114 2.90114C7.15119 2.65109 7.29167 2.31196 7.29167 1.95833M3.29167 9.95833V7.29167M5.29167 9.95833V9.29167M7.29167 9.95833V8.625" stroke="#7D7D7D" stroke-width="1.25" stroke-linecap="round" stroke-linejoin="round"/>
</svg>
