<svg width="12" height="12" viewBox="0 0 12 12" fill="none" xmlns="http://www.w3.org/2000/svg">
<path d="M4.62512 0.625153L7.29179 11.2918M5.95846 5.95849L0.625122 7.29182M0.625122 1.95849C0.625122 1.60486 0.765598 1.26573 1.01565 1.01568C1.26569 0.765628 1.60483 0.625153 1.95846 0.625153H9.95846C10.3121 0.625153 10.6512 0.765628 10.9013 1.01568C11.1513 1.26573 11.2918 1.60486 11.2918 1.95849V9.95849C11.2918 10.3121 11.1513 10.6512 10.9013 10.9013C10.6512 11.1513 10.3121 11.2918 9.95846 11.2918H1.95846C1.60483 11.2918 1.26569 11.1513 1.01565 10.9013C0.765598 10.6512 0.625122 10.3121 0.625122 9.95849V1.95849Z" stroke="#0088D1" stroke-width="1.25" stroke-linecap="round" stroke-linejoin="round"/>
</svg>
